<?xml version="1.0" standalone="no"?>
<!DOCTYPE svg PUBLIC "-//W3C//DTD SVG 20010904//EN"
 "http://www.w3.org/TR/2001/REC-SVG-20010904/DTD/svg10.dtd">
<svg version="1.0" xmlns="http://www.w3.org/2000/svg"
 width="512.000000pt" height="512.000000pt" viewBox="0 0 512.000000 512.000000"
 preserveAspectRatio="xMidYMid meet">

<g transform="translate(0.000000,512.000000) scale(0.100000,-0.100000)"
fill="#000000" stroke="none">
<path d="M2190 3404 c-314 -21 -497 -49 -620 -94 -193 -71 -300 -137 -358
-222 -38 -56 -81 -164 -237 -600 l-128 -356 -116 -4 c-107 -3 -119 -5 -158
-30 -54 -35 -67 -56 -109 -169 -36 -97 -41 -133 -23 -172 17 -37 50 -47 159
-47 55 0 100 -1 100 -3 0 -2 -12 -37 -27 -78 l-27 -74 -4 -713 c-3 -709 -3
-714 18 -757 16 -32 33 -49 64 -64 40 -20 60 -21 342 -21 291 0 301 1 344 23
71 35 80 63 80 250 l0 157 1070 0 1070 0 0 -157 c0 -187 9 -215 80 -250 43
-22 53 -23 344 -23 282 0 302 1 342 21 31 15 48 32 64 64 21 43 21 48 18 757
l-4 713 -27 74 c-15 41 -27 76 -27 78 0 2 45 3 100 3 109 0 142 10 159 47 18
39 13 75 -23 172 -42 113 -55 134 -109 168 -38 25 -53 28 -161 33 l-118 5
-112 310 c-155 427 -224 604 -251 645 -103 157 -364 258 -775 300 -102 11
-829 21 -940 14z m875 -324 c300 -25 524 -80 584 -144 37 -40 171 -408 247
-681 24 -87 44 -164 44 -171 0 -12 -140 -49 -295 -79 -518 -99 -1378 -111
-1980 -29 -182 25 -471 83 -492 99 -5 3 70 275 109 395 70 216 159 438 187
466 83 83 328 135 726 154 208 10 694 4 870 -10z m-1881 -1585 c95 -32 338
-135 419 -178 75 -39 107 -80 107 -136 0 -93 -49 -118 -247 -127 -162 -7 -406
8 -481 31 -30 9 -70 31 -90 50 l-37 33 -3 109 c-6 161 16 219 93 243 47 15
152 4 239 -25z m3024 9 c47 -27 57 -63 57 -207 l0 -129 -37 -33 c-20 -19 -60
-41 -90 -50 -76 -23 -319 -38 -482 -31 -200 9 -246 33 -246 127 0 56 32 97
107 136 125 67 403 177 518 207 40 10 143 -2 173 -20z"/>
</g>
</svg>
