<?xml version="1.0" encoding="UTF-8" standalone="no"?>
<!-- Created with Inkscape (http://www.inkscape.org/) -->

<svg
   version="1.1"
   id="svg2"
   width="1310.4762"
   height="1045.571"
   viewBox="0 0 1310.4762 1045.571"
   sodipodi:docname="logotipo.svg"
   inkscape:version="1.2.1 (9c6d41e410, 2022-07-14)"
   inkscape:export-filename="logotipoPrincipal2.png"
   inkscape:export-xdpi="96"
   inkscape:export-ydpi="96"
   xmlns:inkscape="http://www.inkscape.org/namespaces/inkscape"
   xmlns:sodipodi="http://sodipodi.sourceforge.net/DTD/sodipodi-0.dtd"
   xmlns:xlink="http://www.w3.org/1999/xlink"
   xmlns="http://www.w3.org/2000/svg"
   xmlns:svg="http://www.w3.org/2000/svg">
  <defs
     id="defs6">
    <linearGradient
       inkscape:collect="always"
       id="linearGradient11338">
      <stop
         style="stop-color:#28b782;stop-opacity:1;"
         offset="0"
         id="stop11334" />
      <stop
         style="stop-color:#21b9a4;stop-opacity:1;"
         offset="1"
         id="stop11336" />
    </linearGradient>
    <inkscape:path-effect
       effect="bspline"
       id="path-effect9666"
       is_visible="true"
       lpeversion="1"
       weight="33.333333"
       steps="2"
       helper_size="0"
       apply_no_weight="true"
       apply_with_weight="true"
       only_selected="false" />
    <inkscape:path-effect
       effect="bspline"
       id="path-effect8884"
       is_visible="true"
       lpeversion="1"
       weight="33.333333"
       steps="2"
       helper_size="0"
       apply_no_weight="true"
       apply_with_weight="true"
       only_selected="false" />
    <inkscape:path-effect
       effect="bspline"
       id="path-effect7617"
       is_visible="true"
       lpeversion="1"
       weight="33.333333"
       steps="2"
       helper_size="0"
       apply_no_weight="true"
       apply_with_weight="true"
       only_selected="false" />
    <inkscape:path-effect
       effect="bspline"
       id="path-effect3589"
       is_visible="true"
       lpeversion="1"
       weight="33.333333"
       steps="2"
       helper_size="0"
       apply_no_weight="true"
       apply_with_weight="true"
       only_selected="false" />
    <linearGradient
       id="linearGradient1138"
       inkscape:swatch="solid">
      <stop
         style="stop-color:#ffffff;stop-opacity:1;"
         offset="0"
         id="stop1136" />
    </linearGradient>
    <inkscape:path-effect
       effect="bspline"
       id="path-effect9666-4"
       is_visible="true"
       lpeversion="1"
       weight="33.333333"
       steps="2"
       helper_size="0"
       apply_no_weight="true"
       apply_with_weight="true"
       only_selected="false" />
    <linearGradient
       inkscape:collect="always"
       xlink:href="#linearGradient11338"
       id="linearGradient11340"
       x1="-59.555401"
       y1="501.258"
       x2="1367.2927"
       y2="501.258"
       gradientUnits="userSpaceOnUse"
       gradientTransform="matrix(0.91826082,0,0,0.91784296,57.168848,63.041897)" />
  </defs>
  <sodipodi:namedview
     id="namedview4"
     pagecolor="#ffffff"
     bordercolor="#000000"
     borderopacity="0.25"
     inkscape:showpageshadow="2"
     inkscape:pageopacity="0.0"
     inkscape:pagecheckerboard="0"
     inkscape:deskcolor="#d1d1d1"
     showgrid="false"
     showguides="true"
     inkscape:zoom="0.46086259"
     inkscape:cx="-27.123052"
     inkscape:cy="483.87525"
     inkscape:window-width="1920"
     inkscape:window-height="1009"
     inkscape:window-x="1358"
     inkscape:window-y="-8"
     inkscape:window-maximized="1"
     inkscape:current-layer="g8" />
  <g
     inkscape:groupmode="layer"
     inkscape:label="Image"
     id="g8">
    <rect
       style="fill:url(#linearGradient11340);fill-opacity:1;fill-rule:evenodd;stroke:none;stroke-width:0.918052;stroke-opacity:1"
       id="rect11332"
       width="1310.2189"
       height="1043.1428"
       x="2.4814565"
       y="1.5465862"
       rx="0"
       ry="0" />
    <rect
       style="fill:#ffffff;fill-opacity:1;stroke:none;stroke-width:0.620155;stroke-opacity:1"
       id="rect8888-2-8-8-7"
       width="50.646275"
       height="153.34283"
       x="1054.1884"
       y="652.26593"
       rx="70.904785"
       ry="14.466307" />
    <ellipse
       style="fill:#ffffff;fill-opacity:1;stroke:none;stroke-width:0.721329;stroke-opacity:1"
       id="path11188"
       cx="777.52979"
       cy="689.14026"
       rx="116.89244"
       ry="115.3444" />
    <rect
       style="fill:#ffffff;fill-opacity:1;stroke:none;stroke-width:0.620156;stroke-opacity:1"
       id="rect8888-2-8-4"
       width="50.645477"
       height="153.34538"
       x="-874.0871"
       y="-828.04608"
       rx="70.903664"
       ry="14.466546"
       transform="matrix(-0.99967264,0.02558526,-0.02682052,-0.99964027,0,0)" />
    <g
       id="g11127"
       transform="matrix(0.74217259,0,0,0.72486847,174.52736,113.31765)">
      <g
         id="g10393"
         transform="translate(308.94364,140.20334)">
        <g
           id="g10387">
          <g
             id="g9670"
             transform="translate(-308.94364,-143.92555)">
            <rect
               style="fill:#ffffff;fill-opacity:1;stroke:none;stroke-width:0.845509;stroke-opacity:1"
               id="rect8888"
               width="68.240562"
               height="211.54575"
               x="31.638807"
               y="803.37756"
               rx="95.536789"
               ry="19.957146" />
            <ellipse
               style="fill:#ffffff;fill-opacity:1;stroke:none;stroke-width:1.04678;stroke-opacity:1"
               id="path9616"
               cx="190.7634"
               cy="799.96552"
               rx="159.74496"
               ry="155.40237" />
          </g>
        </g>
      </g>
      <ellipse
         style="fill:#26b695;fill-opacity:1;stroke:#ffffff;stroke-width:1.16086;stroke-opacity:1"
         id="path3585-1"
         cx="188.81932"
         cy="797.03503"
         rx="87.410759"
         ry="90.493828" />
      <ellipse
         style="fill:#26b695;fill-opacity:1;stroke:#ffffff;stroke-width:1.16086;stroke-opacity:1"
         id="path3585-1-6"
         cx="811.66522"
         cy="796.70325"
         rx="87.410759"
         ry="90.493828" />
    </g>
    <g
       id="g11134"
       transform="matrix(0.74217259,0,0,0.71732947,507.98835,92.683065)">
      <rect
         style="fill:#ffffff;fill-opacity:1;stroke:#ffffff;stroke-width:1.00524;stroke-opacity:1"
         id="rect353"
         width="419.77988"
         height="439.0741"
         x="-31.026875"
         y="109.52851"
         ry="106.05176"
         rx="74.587143" />
      <path
         style="fill:#23b69a;fill-opacity:1;stroke:none;stroke-width:1.00524;stroke-opacity:1"
         d="m 123.70405,545.31357 c 12.19991,2.92566 12.61348,1.25396 12.4585,-7.65308 -0.15499,-8.90704 -0.87872,-25.04879 1.60337,-32.363 2.48209,-7.31421 8.16869,-5.79925 21.9354,-6.49534 13.7667,-0.69608 35.61242,-3.60263 53.21589,-7.51728 17.60347,-3.91465 30.96293,-8.83685 45.90414,-19.20835 14.94122,-10.37149 31.46292,-26.19119 43.82356,-38.72194 12.36064,-12.53075 20.55878,-21.7711 18.06175,-23.52916 -2.49703,-1.75805 -15.68974,3.96678 -63.96576,3.13971 -48.27603,-0.82707 -131.63085,-8.20604 -177.613123,-17.62182 -45.982274,-9.41578 -54.58649,-20.86832 -60.375944,-30.66021 -5.789454,-9.7919 -8.7631232,-17.92225 -9.3613888,3.40469 -0.5982655,21.32694 1.1792998,72.11039 8.3241838,101.89135 7.144885,29.78096 19.655411,38.55722 28.185519,44.61719 8.530109,6.05997 13.079388,9.40331 27.348143,14.83619 14.268754,5.43288 38.25586,12.9554 50.45576,15.88105 z"
         id="path3587"
         inkscape:path-effect="#path-effect3589"
         inkscape:original-d="m 135.49056,549.91021 c 0.41458,-1.67069 0.82815,-3.34239 1.24073,-5.01511 -0.72277,-16.14169 -1.44651,-32.28344 -2.17128,-48.42714 5.68782,1.51601 11.37442,3.03096 17.06013,4.54494 21.84803,-2.90571 43.69375,-5.81226 65.53976,-8.71998 13.36123,-4.92148 26.72068,-9.8437 40.07993,-14.7672 16.52371,-15.81967 33.04542,-31.63937 49.56715,-47.46105 8.19963,-9.2399 16.39777,-18.48025 24.5954,-27.72216 -13.19222,5.72608 -26.38493,11.45091 -39.5789,17.17485 C 208.46479,412.13897 125.10997,404.76 41.749371,397.3796 33.145661,385.92741 24.541451,374.47487 15.935721,363.02066 12.962935,354.891 9.989268,346.76065 7.014538,338.62913 c 1.778604,50.78557 3.55617,101.56902 5.332808,152.35355 12.512023,8.77762 25.022546,17.55389 37.532315,26.32931 4.55046,3.34449 9.09974,6.68783 13.64811,10.03022 23.98907,7.52384 47.976179,15.04634 71.962789,22.568 z"
         sodipodi:nodetypes="cccccccccccccccc" />
      <ellipse
         style="fill:#23b79d;fill-opacity:1;stroke:none;stroke-width:0.978525;stroke-opacity:1"
         id="path4648"
         cx="177.82614"
         cy="332.2999"
         rx="169.98105"
         ry="169.88684" />
      <ellipse
         style="fill:#ffffff;fill-opacity:1;stroke:#ffffff;stroke-width:1.00524;stroke-opacity:1"
         id="path3585"
         cx="175.71054"
         cy="336.88623"
         rx="76.305359"
         ry="77.734207" />
      <path
         style="fill:#ffffff;fill-opacity:1;stroke:none;stroke-width:1.00524;stroke-opacity:1"
         d="m 29.158014,242.59255 c 0.1705,0.42204 -9.431333,7.17629 -14.136481,22.76179 -4.705149,15.5855 -4.513059,39.99983 -4.644468,67.1386 -0.131409,27.13876 -0.5862877,57.00089 -0.450729,77.8024 0.135559,20.80151 0.861449,32.54047 -1.0783977,33.20176 -1.9398464,0.66128 -6.5457542,-9.75552 -6.9481306,-43.18671 -0.4023764,-33.4312 3.3993281,-89.87405 10.2720583,-121.05184 6.872731,-31.17778 16.815648,-37.08803 16.986148,-36.666 z"
         id="path8882"
         inkscape:path-effect="#path-effect8884"
         inkscape:original-d="m 38.930329,236.26034 c -9.60101,6.75539 -19.20284,13.50965 -28.80605,20.26316 0.1931,24.41633 0.38518,48.83066 0.57628,73.24449 -0.453888,29.86373 -0.908766,59.72586 -1.364663,89.58814 0.726933,11.74066 1.452823,23.47962 2.177756,35.21827 -4.605097,-10.41622 -9.211009,-20.83302 -13.818013,-31.25106 3.80286,-56.44408 7.60456,-112.88693 11.40534,-169.33191 9.94432,-5.90948 19.88724,-11.81972 29.82935,-17.73109 z"
         sodipodi:nodetypes="cccccccc" />
    </g>
    <rect
       style="fill:#ffffff;fill-opacity:1;stroke:none;stroke-width:0.620155;stroke-opacity:1"
       id="rect8888-2"
       width="50.646275"
       height="153.34283"
       x="453.08188"
       y="573.64307"
       rx="70.904785"
       ry="14.466307" />
    <rect
       style="fill:#ffffff;fill-opacity:1;stroke:none;stroke-width:0.620155;stroke-opacity:1"
       id="rect8888-2-8"
       width="50.646275"
       height="153.34283"
       x="589.75165"
       y="576.16895"
       rx="70.904785"
       ry="14.466307" />
    <rect
       style="fill:#ffffff;fill-opacity:1;stroke:none;stroke-width:0.620155;stroke-opacity:1"
       id="rect8888-2-8-8"
       width="50.646275"
       height="153.34283"
       x="916.70636"
       y="651.20056"
       rx="70.904785"
       ry="14.466307" />
    <rect
       style="fill:#ffffff;fill-opacity:1;stroke:none;stroke-width:0.620155;stroke-opacity:1"
       id="rect8888-2-8-8-6"
       width="50.646275"
       height="153.34283"
       x="916.52246"
       y="523.65588"
       rx="70.904785"
       ry="14.466307" />
    <path
       style="fill:#ffffff;fill-opacity:1;stroke:none;stroke-width:0.734372;stroke-opacity:1"
       d="m 494.10289,708.72624 c 8.2358,-0.81989 8.38965,-3.62614 8.59793,-1.34457 0.20829,2.28157 0.47092,9.65058 1.48209,15.39959 1.01117,5.74901 2.77044,9.87727 5.66296,13.69026 2.89252,3.81298 6.91768,7.31064 11.92214,9.74823 5.00445,2.43758 10.98781,3.81545 17.35204,4.4513 6.36424,0.63584 13.1091,0.52985 19.14689,-0.37116 6.03778,-0.90102 11.36842,-2.59686 16.0462,-5.56459 4.67779,-2.96774 8.70295,-7.20733 11.2595,-13.45642 2.55654,-6.24908 3.64441,-14.50769 4.13398,-18.00547 0.48958,-3.49779 0.38079,-2.23433 8.54064,-1.28494 8.15986,0.94939 24.58689,1.58533 32.95041,2.15962 8.36353,0.57429 8.66348,1.08603 8.62861,4.13294 -0.0349,3.04692 -0.40402,8.62881 -1.15514,13.82511 -0.75112,5.19631 -1.88404,10.00653 -3.44288,14.42822 -1.55884,4.42169 -3.54339,8.45455 -6.48461,12.7809 -2.94122,4.32635 -6.83885,8.94592 -12.04488,13.87834 -5.20604,4.93242 -11.72012,10.17735 -19.3832,14.81372 -7.66309,4.63637 -16.47494,8.66399 -27.78912,11.47284 -11.31417,2.80884 -25.13028,4.39869 -37.74996,2.83548 -12.61967,-1.56321 -24.0422,-6.27966 -33.09919,-10.70483 -9.05699,-4.42518 -15.74733,-8.5587 -22.60139,-15.55416 -6.85406,-6.99546 -13.87077,-16.85232 -17.81476,-27.42526 -3.944,-10.57294 -4.81431,-21.86084 -5.14073,-28.88289 -0.32643,-7.02205 -0.10885,-9.77778 8.1598,-10.57302 8.26866,-0.79523 24.58688,0.37066 32.82267,-0.44924 z"
       id="path9664"
       inkscape:path-effect="#path-effect9666"
       inkscape:original-d="m 502.18487,710.71199 c 0.1546,-2.8056 0.30844,-5.61185 0.46156,-8.41894 0.26339,7.37016 0.52602,14.73917 0.78793,22.10789 1.76009,4.12917 3.51935,8.25744 5.27792,12.38507 4.02608,3.49853 8.05123,6.9962 12.07573,10.4932 5.98433,1.37864 11.96769,2.75652 17.95041,4.13369 6.74588,-0.10527 13.49074,-0.21126 20.23501,-0.31798 5.33157,-1.69518 10.66221,-3.39102 15.99219,-5.08761 4.02605,-4.23904 8.05122,-8.47863 12.07572,-12.71903 1.08867,-8.25837 2.17653,-16.51698 3.26371,-24.77678 -0.10806,1.26419 -0.21684,2.52765 -0.32637,3.79037 16.42841,0.63669 32.85544,1.27263 49.28203,1.90785 0.30073,0.51252 0.60068,1.02426 0.89992,1.53533 -0.36843,5.58295 -0.73759,11.16484 -1.1075,16.74634 -1.13225,4.81126 -2.26517,9.62148 -3.3989,14.43128 -1.98392,4.03382 -3.96846,8.06668 -5.95389,12.09905 -3.8971,4.62057 -7.79474,9.24013 -11.69335,13.85923 -6.51361,5.24587 -13.02769,10.49081 -19.54266,15.73512 -8.81144,4.02851 -17.6233,8.05612 -26.43606,12.0831 -13.8159,1.59062 -27.63201,3.18046 -41.44913,4.76963 -11.42247,-4.71601 -22.84499,-9.43247 -34.26896,-14.14993 -6.68999,-4.13304 -13.38033,-8.26656 -20.0718,-12.40106 -7.01639,-9.85672 -14.03309,-19.71358 -21.05095,-29.57175 -0.86959,-11.28766 -1.7399,-22.57556 -2.61097,-33.86443 0.21834,-2.75512 0.43592,-5.51085 0.65274,-8.26737 16.31963,1.16666 32.63785,2.33255 48.95567,3.49773 z"
       sodipodi:nodetypes="cccccccccccccccccccccccccc" />
    <path
       style="fill:#ffffff;fill-opacity:1;stroke:none;stroke-width:0.734372;stroke-opacity:1"
       d="m 1063.4335,676.10615 c -8.2132,1.01299 -8.2979,3.82201 -8.5623,1.54599 -0.2644,-2.27602 -0.7083,-9.63672 -1.8606,-15.36032 -1.1524,-5.7236 -3.0127,-9.80941 -5.9982,-13.5534 -2.9855,-3.74398 -7.0956,-7.14617 -12.1586,-9.46556 -5.063,-2.3194 -11.0786,-3.55643 -17.4566,-4.04268 -6.3781,-0.48626 -13.1183,-0.22198 -19.13217,0.8205 -6.01391,1.04249 -11.3013,2.86297 -15.90468,5.93965 -4.60337,3.07667 -8.52307,7.40962 -10.92507,13.71688 -2.402,6.30726 -3.28637,14.589 -3.68974,18.09727 -0.40337,3.50828 -0.32567,2.24265 -8.50654,1.48506 -8.18087,-0.75759 -24.61878,-1.00773 -32.99401,-1.38553 -8.37523,-0.37781 -8.68769,-0.88236 -8.72781,-3.9292 -0.0401,-3.04685 0.19154,-8.63578 0.81458,-13.84822 0.62305,-5.21244 1.63729,-10.04786 3.08687,-14.50487 1.44958,-4.45701 3.33429,-8.5353 6.16819,-12.92945 2.8339,-4.39414 6.61673,-9.10384 11.6999,-14.15704 5.08316,-5.0532 11.46627,-10.44949 19.01306,-15.26442 7.54678,-4.81493 16.25698,-9.04824 27.49877,-12.12187 11.24179,-3.07362 25.01465,-4.98731 37.66915,-3.7208 12.6546,1.26651 24.1899,5.71348 33.3531,9.92477 9.1633,4.21129 15.9534,8.18656 22.9776,15.01911 7.0242,6.83255 14.2814,16.52185 18.4845,26.99915 4.203,10.4773 5.3509,21.74151 5.85,28.75388 0.4992,7.01236 0.3495,9.7724 -7.8972,10.7615 -8.2467,0.9891 -24.5889,0.20661 -32.8022,1.2196 z"
       id="path9664-1"
       inkscape:path-effect="#path-effect9666-4"
       inkscape:original-d="m 1055.305,674.31069 c -0.086,2.80841 -0.1702,5.61745 -0.2542,8.42732 -0.4448,-7.36184 -0.8885,-14.72255 -1.3318,-22.083 -1.8611,-4.08665 -3.7215,-8.17243 -5.5811,-12.2576 -4.111,-3.40301 -8.2211,-6.80517 -12.3304,-10.20669 -6.0166,-1.23778 -12.0322,-2.47481 -18.047,-3.71113 -6.7414,0.26359 -13.4816,0.52787 -20.22137,0.79288 -5.2883,1.81984 -10.5757,3.64032 -15.8624,5.46153 -3.9205,4.33232 -7.8403,8.66518 -11.7591,12.99884 -0.8852,8.28154 -1.7695,16.56329 -2.6532,24.84623 0.077,-1.26636 0.1547,-2.53199 0.2331,-3.79695 -16.43939,-0.25086 -32.8773,-0.50101 -49.31474,-0.75045 -0.31328,-0.50531 -0.62574,-1.00986 -0.93745,-1.51376 0.23097,-5.58998 0.4626,-11.17891 0.69504,-16.76749 1.01359,-4.83645 2.02779,-9.67187 3.04287,-14.50689 1.88409,-4.07922 3.76881,-8.15751 5.65435,-12.23533 3.78234,-4.7107 7.56516,-9.42041 11.34896,-14.1297 6.38265,-5.39727 12.76572,-10.7936 19.14987,-16.18933 8.7097,-4.23418 17.4199,-8.46748 26.131,-12.70015 13.7728,-1.9145 27.54567,-3.8282 41.31977,-5.74124 11.5352,4.44651 23.0705,8.89348 34.6072,13.3414 6.7898,3.9748 13.5799,7.9501 20.3712,11.92632 7.2569,9.68917 14.5141,19.37848 21.7725,29.06906 1.1472,11.26397 2.295,22.52819 3.4436,33.79335 -0.1505,2.75945 -0.3001,5.5195 -0.449,8.28031 -16.3437,-0.78324 -32.6859,-1.56574 -49.0277,-2.34753 z"
       sodipodi:nodetypes="cccccccccccccccccccccccccc" />
  </g>
</svg>
