<svg width="394" height="97" viewBox="0 0 394 97" fill="none" xmlns="http://www.w3.org/2000/svg">
<path d="M17.3793 39.7C17.3793 34.3 19.5793 29.7667 23.9793 26.1C28.3793 22.4333 34.4126 20.6 42.0793 20.6C45.4793 20.6 48.946 21.1 52.4793 22.1C56.0126 23.1 59.1126 24.4 61.7793 26L56.7793 37.7C53.7126 36.5667 51.146 35.7333 49.0793 35.2C47.0126 34.6 44.746 34.3 42.2793 34.3C39.8793 34.3 37.946 34.8 36.4793 35.8C35.0793 36.8 34.3793 38.1333 34.3793 39.8C34.3793 41.6667 35.4793 43.2333 37.6793 44.5C39.8793 45.7667 42.5126 47.2 45.5793 48.8C50.3793 51.2667 54.9793 54.3 59.3793 57.9C63.7793 61.5 65.9793 66.1 65.9793 71.7C65.9793 77.3 63.646 81.9667 58.9793 85.7C54.3793 89.4333 47.9126 91.3 39.5793 91.3C36.3126 91.3 32.446 90.7333 27.9793 89.6C23.5793 88.4667 20.246 87.1667 17.9793 85.7L22.9793 73.1C24.846 74.1667 27.346 75.2 30.4793 76.2C33.6793 77.1333 36.5793 77.6 39.1793 77.6C42.446 77.6 44.9126 77 46.5793 75.8C48.246 74.6 49.0793 73.1667 49.0793 71.5C49.0793 69.9667 47.8793 68.4667 45.4793 67C43.146 65.4667 40.5793 64 37.7793 62.6C33.1793 60.2 28.6126 57.2667 24.0793 53.8C19.6126 50.2667 17.3793 45.5667 17.3793 39.7ZM73.3363 39.7C73.3363 34.3 75.5363 29.7667 79.9363 26.1C84.3363 22.4333 90.3697 20.6 98.0363 20.6C101.436 20.6 104.903 21.1 108.436 22.1C111.97 23.1 115.07 24.4 117.736 26L112.736 37.7C109.67 36.5667 107.103 35.7333 105.036 35.2C102.97 34.6 100.703 34.3 98.2363 34.3C95.8363 34.3 93.903 34.8 92.4363 35.8C91.0363 36.8 90.3363 38.1333 90.3363 39.8C90.3363 41.6667 91.4363 43.2333 93.6363 44.5C95.8363 45.7667 98.4697 47.2 101.536 48.8C106.336 51.2667 110.936 54.3 115.336 57.9C119.736 61.5 121.936 66.1 121.936 71.7C121.936 77.3 119.603 81.9667 114.936 85.7C110.336 89.4333 103.87 91.3 95.5363 91.3C92.2697 91.3 88.403 90.7333 83.9363 89.6C79.5363 88.4667 76.203 87.1667 73.9363 85.7L78.9363 73.1C80.803 74.1667 83.303 75.2 86.4363 76.2C89.6363 77.1333 92.5363 77.6 95.1363 77.6C98.403 77.6 100.87 77 102.536 75.8C104.203 74.6 105.036 73.1667 105.036 71.5C105.036 69.9667 103.836 68.4667 101.436 67C99.103 65.4667 96.5363 64 93.7363 62.6C89.1363 60.2 84.5697 57.2667 80.0363 53.8C75.5697 50.2667 73.3363 45.5667 73.3363 39.7ZM159.493 42.4L152.193 62.7H167.093L159.493 42.4ZM167.693 22L193.393 88.2L177.193 90L171.893 75.7H147.593L142.393 90H126.093L151.893 22H167.693ZM229.634 90H201.734V22H229.634C240.234 22 248.234 25.1667 253.634 31.5C259.034 37.7667 261.734 45.8 261.734 55.6C261.734 66.1333 258.801 74.5 252.934 80.7C247.067 86.9 239.301 90 229.634 90ZM229.434 35.2H218.134V76.9H228.734C233.401 76.9 237.234 75.2 240.234 71.8C243.234 68.3333 244.734 62.9333 244.734 55.6C244.734 49.5333 243.434 44.6333 240.834 40.9C238.301 37.1 234.501 35.2 229.434 35.2Z" fill="url(#paint0_linear_54_1581)"/>
<mask id="mask0_54_1581" style="mask-type:luminance" maskUnits="userSpaceOnUse" x="279" y="73" width="23" height="23">
<path d="M279 73.9322H301.529V95.4822H279V73.9322Z" fill="white"/>
</mask>
<g mask="url(#mask0_54_1581)">
<mask id="mask1_54_1581" style="mask-type:luminance" maskUnits="userSpaceOnUse" x="272" y="72" width="31" height="31">
<path d="M287.609 72.8301L302.356 89.3714L287.556 102.565L272.809 86.0234L287.609 72.8301Z" fill="white"/>
</mask>
<g mask="url(#mask1_54_1581)">
<mask id="mask2_54_1581" style="mask-type:luminance" maskUnits="userSpaceOnUse" x="279" y="73" width="23" height="23">
<path d="M282.604 95.0652L299.172 91.5526C300.063 91.3613 300.786 90.7108 301.073 89.846C301.357 88.9813 301.158 88.0285 300.549 87.3474L289.415 74.8544C288.806 74.1733 287.884 73.8672 286.989 74.0509C286.097 74.2307 285.37 74.8774 285.08 75.7421L279.692 91.7975C279.405 92.6546 279.6 93.5997 280.201 94.277C280.802 94.9504 281.72 95.2527 282.604 95.0652Z" fill="white"/>
</mask>
<g mask="url(#mask2_54_1581)">
<path d="M286.48 71.5637L303.484 90.638L286.794 105.515L269.79 86.4405L286.48 71.5637Z" fill="url(#paint1_linear_54_1581)"/>
</g>
</g>
</g>
<mask id="mask3_54_1581" style="mask-type:luminance" maskUnits="userSpaceOnUse" x="280" y="39" width="57" height="57">
<path d="M280.959 39.6482H336.792V95.4822H280.959V39.6482Z" fill="white"/>
</mask>
<g mask="url(#mask3_54_1581)">
<mask id="mask4_54_1581" style="mask-type:luminance" maskUnits="userSpaceOnUse" x="277" y="35" width="64" height="65">
<path d="M286.469 35.9098L340.817 45.1237L331.6 99.4731L277.255 90.2554L286.469 35.9098Z" fill="white"/>
</mask>
<g mask="url(#mask4_54_1581)">
<mask id="mask5_54_1581" style="mask-type:luminance" maskUnits="userSpaceOnUse" x="281" y="40" width="56" height="56">
<path d="M313.643 40.5168C298.636 37.9723 284.407 48.0738 281.862 63.0846C279.318 78.0915 289.419 92.3217 304.426 94.8662C319.436 97.4107 333.666 87.3053 336.21 72.2984C338.755 57.2915 328.65 43.0613 313.643 40.5168Z" fill="white"/>
</mask>
<g mask="url(#mask5_54_1581)">
<path d="M286.469 35.91L340.817 45.1238L331.6 99.4732L277.255 90.2555L286.469 35.91Z" fill="url(#paint2_linear_54_1581)"/>
</g>
<g filter="url(#filter0_d_54_1581)">
<mask id="mask6_54_1581" style="mask-type:luminance" maskUnits="userSpaceOnUse" x="286" y="49" width="42" height="38">
<path d="M286.328 55.9293L322.867 49.748L327.993 80.0493L291.454 86.2306L286.328 55.9293Z" fill="white"/>
</mask>
<g mask="url(#mask6_54_1581)">
<mask id="mask7_54_1581" style="mask-type:luminance" maskUnits="userSpaceOnUse" x="290" y="54" width="37" height="27">
<path d="M290.562 54.7976L326.316 54.8116L326.306 80.4492L290.552 80.4352L290.562 54.7976Z" fill="white"/>
</mask>
<g mask="url(#mask7_54_1581)">
<mask id="mask8_54_1581" style="mask-type:luminance" maskUnits="userSpaceOnUse" x="290" y="54" width="37" height="27">
<path d="M290.562 54.7976L326.316 54.8116L326.306 80.4492L290.552 80.4352L290.562 54.7976Z" fill="white"/>
</mask>
<g mask="url(#mask8_54_1581)">
<path d="M320.348 77.4252C321.995 77.4259 323.314 76.0783 323.315 74.413L323.335 57.8299C323.336 56.1646 322.005 54.8142 320.358 54.8136L296.522 54.803C294.875 54.8024 293.542 56.1523 293.541 57.8176L293.535 74.3984C293.533 76.0637 294.865 77.4141 296.512 77.4147L290.553 77.413C290.552 79.0783 291.883 80.4287 293.531 80.4293L323.329 80.441C324.973 80.4422 326.309 79.0917 326.307 77.427L320.348 77.4252ZM296.52 57.8185L320.356 57.829L320.35 74.4098L296.514 74.3992L296.52 57.8185ZM308.431 78.9292C307.611 78.9282 306.941 78.2502 306.94 77.4195C306.94 76.5924 307.613 75.9128 308.429 75.9143C309.25 75.9152 309.919 76.5933 309.92 77.4204C309.921 78.251 309.251 78.9266 308.431 78.9292Z" fill="white"/>
</g>
</g>
</g>
</g>
</g>
</g>
<mask id="mask9_54_1581" style="mask-type:luminance" maskUnits="userSpaceOnUse" x="321" y="1" width="74" height="73">
<path d="M321.075 1.51779H394.049V73.5438H321.075V1.51779Z" fill="white"/>
</mask>
<g mask="url(#mask9_54_1581)">
<mask id="mask10_54_1581" style="mask-type:luminance" maskUnits="userSpaceOnUse" x="316" y="-4" width="84" height="83">
<path d="M328.323 -3.97598L399.146 8.03329L387.133 78.8525L316.314 66.8432L328.323 -3.97598Z" fill="white"/>
</mask>
<g mask="url(#mask10_54_1581)">
<mask id="mask11_54_1581" style="mask-type:luminance" maskUnits="userSpaceOnUse" x="321" y="1" width="73" height="73">
<path d="M363.733 2.02864C344.179 -1.28834 325.636 11.8759 322.319 31.4336C319.005 50.9912 332.17 69.5308 351.724 72.8478C371.281 76.1648 389.825 63.0005 393.142 43.4429C396.455 23.8852 383.291 5.34563 363.733 2.02864Z" fill="white"/>
</mask>
<g mask="url(#mask11_54_1581)">
<path d="M328.323 -3.976L399.146 8.03327L387.133 78.8524L316.314 66.8432L328.323 -3.976Z" fill="url(#paint3_linear_54_1581)"/>
</g>
</g>
</g>
<mask id="mask12_54_1581" style="mask-type:luminance" maskUnits="userSpaceOnUse" x="340" y="10" width="32" height="49">
<path d="M340.977 10.0472H371.304V58.3804H340.977V10.0472Z" fill="white"/>
</mask>
<g mask="url(#mask12_54_1581)">
<mask id="mask13_54_1581" style="mask-type:luminance" maskUnits="userSpaceOnUse" x="340" y="10" width="32" height="49">
<path d="M340.881 12.4387L367.824 10.5396L371.078 56.6257L344.135 58.5248L340.881 12.4387Z" fill="white"/>
</mask>
<g mask="url(#mask13_54_1581)">
<mask id="mask14_54_1581" style="mask-type:luminance" maskUnits="userSpaceOnUse" x="340" y="10" width="32" height="49">
<path d="M340.881 12.4387L367.824 10.5396L371.078 56.6257L344.135 58.5248L340.881 12.4387Z" fill="white"/>
</mask>
<g mask="url(#mask14_54_1581)">
<path d="M362.641 10.9061L346.067 12.0759C343.209 12.2758 341.051 14.7857 341.258 17.677L343.768 53.2902C343.975 56.1815 346.46 58.3619 349.317 58.162L365.891 56.9922C368.749 56.7886 370.904 54.2786 370.7 51.3874L368.19 15.7779C367.983 12.8866 365.499 10.7024 362.641 10.9061ZM357.458 55.4818C355.737 55.6039 354.252 54.2971 354.126 52.5572C354.004 50.821 355.296 49.318 357.014 49.1958C358.732 49.0736 360.22 50.3804 360.342 52.1204C360.464 53.8566 359.176 55.3596 357.458 55.4818ZM366.187 46.4452L347.544 47.7594L345.475 18.4322L364.118 17.1143L366.187 46.4452Z" fill="white"/>
</g>
</g>
</g>
<defs>
<filter id="filter0_d_54_1581" x="290.553" y="54.803" width="67.7536" height="57.638" filterUnits="userSpaceOnUse" color-interpolation-filters="sRGB">
<feFlood flood-opacity="0" result="BackgroundImageFix"/>
<feColorMatrix in="SourceAlpha" type="matrix" values="0 0 0 0 0 0 0 0 0 0 0 0 0 0 0 0 0 0 127 0" result="hardAlpha"/>
<feOffset dx="16" dy="16"/>
<feGaussianBlur stdDeviation="8"/>
<feColorMatrix type="matrix" values="0 0 0 0 0 0 0 0 0 0 0 0 0 0 0 0 0 0 0.06 0"/>
<feBlend mode="normal" in2="BackgroundImageFix" result="effect1_dropShadow_54_1581"/>
<feBlend mode="normal" in="SourceGraphic" in2="effect1_dropShadow_54_1581" result="shape"/>
</filter>
<linearGradient id="paint0_linear_54_1581" x1="139.5" y1="-1" x2="139.5" y2="98" gradientUnits="userSpaceOnUse">
<stop stop-color="#405970"/>
<stop offset="1" stop-color="#6D8EAC"/>
</linearGradient>
<linearGradient id="paint1_linear_54_1581" x1="286.637" y1="71.5637" x2="286.637" y2="105.515" gradientUnits="userSpaceOnUse">
<stop stop-color="#405970"/>
<stop offset="1" stop-color="#7598B8"/>
</linearGradient>
<linearGradient id="paint2_linear_54_1581" x1="309.036" y1="35.91" x2="309.036" y2="99.4732" gradientUnits="userSpaceOnUse">
<stop stop-color="#405970"/>
<stop offset="1" stop-color="#7598B8"/>
</linearGradient>
<linearGradient id="paint3_linear_54_1581" x1="357.73" y1="-3.976" x2="357.73" y2="78.8524" gradientUnits="userSpaceOnUse">
<stop stop-color="#405970"/>
<stop offset="1" stop-color="#6D8EAC"/>
</linearGradient>
</defs>
</svg>
