<svg width="1086" height="149" viewBox="0 0 1086 149" fill="none" xmlns="http://www.w3.org/2000/svg">
<path d="M45.6008 47.9L38.3008 68.2H53.2008L45.6008 47.9ZM53.8008 27.5L79.5008 93.7L63.3008 95.5L58.0008 81.2H33.7008L28.5008 95.5H12.2008L38.0008 27.5H53.8008ZM87.9414 95.5V27.5H114.041C121.575 27.5 128.041 29.4333 133.441 33.3C138.908 37.1 141.641 43.0333 141.641 51.1C141.641 59.0333 138.741 64.9 132.941 68.7C127.141 72.5 120.575 74.4 113.241 74.4H104.341V95.5H87.9414ZM113.541 40.6H104.341V61.3H113.741C116.875 61.3 119.475 60.4333 121.541 58.7C123.608 56.9 124.641 54.4667 124.641 51.4C124.641 47.9333 123.641 45.2667 121.641 43.4C119.708 41.5333 117.008 40.6 113.541 40.6ZM152.59 95.5V27.5H178.69C186.223 27.5 192.69 29.4333 198.09 33.3C203.557 37.1 206.29 43.0333 206.29 51.1C206.29 59.0333 203.39 64.9 197.59 68.7C191.79 72.5 185.223 74.4 177.89 74.4H168.99V95.5H152.59ZM178.19 40.6H168.99V61.3H178.39C181.523 61.3 184.123 60.4333 186.19 58.7C188.257 56.9 189.29 54.4667 189.29 51.4C189.29 47.9333 188.29 45.2667 186.29 43.4C184.357 41.5333 181.657 40.6 178.19 40.6ZM236.299 45.2C236.299 39.8 238.499 35.2667 242.899 31.6C247.299 27.9333 253.333 26.1 260.999 26.1C264.399 26.1 267.866 26.6 271.399 27.6C274.933 28.6 278.033 29.9 280.699 31.5L275.699 43.2C272.633 42.0667 270.066 41.2333 267.999 40.7C265.933 40.1 263.666 39.8 261.199 39.8C258.799 39.8 256.866 40.3 255.399 41.3C253.999 42.3 253.299 43.6333 253.299 45.3C253.299 47.1667 254.399 48.7333 256.599 50C258.799 51.2667 261.433 52.7 264.499 54.3C269.299 56.7667 273.899 59.8 278.299 63.4C282.699 67 284.899 71.6 284.899 77.2C284.899 82.8 282.566 87.4667 277.899 91.2C273.299 94.9333 266.833 96.8 258.499 96.8C255.233 96.8 251.366 96.2333 246.899 95.1C242.499 93.9667 239.166 92.6667 236.899 91.2L241.899 78.6C243.766 79.6667 246.266 80.7 249.399 81.7C252.599 82.6333 255.499 83.1 258.099 83.1C261.366 83.1 263.833 82.5 265.499 81.3C267.166 80.1 267.999 78.6667 267.999 77C267.999 75.4667 266.799 73.9667 264.399 72.5C262.066 70.9667 259.499 69.5 256.699 68.1C252.099 65.7 247.533 62.7667 242.999 59.3C238.533 55.7667 236.299 51.0667 236.299 45.2ZM325.256 26C336.123 26 344.256 29.4333 349.656 36.3C355.123 43.1 357.856 51.3667 357.856 61.1C357.856 71.6333 354.99 80.2333 349.256 86.9C343.523 93.5667 335.523 96.9 325.256 96.9C314.456 96.9 306.323 93.5 300.856 86.7C295.456 79.8333 292.756 71.5333 292.756 61.8C292.756 51.3333 295.656 42.7667 301.456 36.1C307.256 29.4333 315.19 26.0667 325.256 26ZM325.156 83.2C330.09 83.2 333.923 81.3667 336.656 77.7C339.456 74.0333 340.856 68.5 340.856 61.1C340.856 54.9 339.623 49.8 337.156 45.8C334.756 41.8 330.856 39.8 325.456 39.8C320.656 39.8 316.823 41.8 313.956 45.8C311.09 49.8 309.656 55.1 309.656 61.7C309.656 67.9 310.856 73.0333 313.256 77.1C315.723 81.1667 319.69 83.2 325.156 83.2ZM417.275 95.5H369.875V27.5H386.275V82.6H415.475L417.275 95.5ZM442.034 27.5V95.5H425.634V27.5H442.034ZM486.382 39.7C481.849 39.7 478.182 41.7 475.382 45.7C472.582 49.7 471.182 55.0333 471.182 61.7C471.182 68.1 472.515 73.3 475.182 77.3C477.915 81.3 481.682 83.3 486.482 83.3C489.149 83.3 491.615 82.9667 493.882 82.3C496.149 81.6333 498.215 80.8 500.082 79.8L506.282 92C503.682 93.5333 500.549 94.7 496.882 95.5C493.215 96.3667 489.749 96.8 486.482 96.8C475.615 96.8 467.515 93.5 462.182 86.9C456.849 80.3 454.182 71.9333 454.182 61.8C454.182 51.3333 457.015 42.8 462.682 36.2C468.415 29.5333 476.315 26.2 486.382 26.2C489.249 26.2 492.482 26.6333 496.082 27.5C499.749 28.3667 502.949 29.6667 505.682 31.4L500.782 42.6C497.382 41.5333 494.749 40.8 492.882 40.4C491.015 39.9333 488.849 39.7 486.382 39.7ZM533.538 27.5V95.5H517.138V27.5H533.538ZM541.886 27.5H598.986C599.319 29.7 599.619 31.8667 599.886 34C600.219 36.1333 600.553 38.3 600.886 40.5H578.586V95.5H562.186V40.5H541.886V27.5ZM636.03 47.9L628.73 68.2H643.63L636.03 47.9ZM644.23 27.5L669.93 93.7L653.73 95.5L648.43 81.2H624.13L618.93 95.5H602.63L628.43 27.5H644.23ZM707.671 39.7C703.138 39.7 699.471 41.7 696.671 45.7C693.871 49.7 692.471 55.0333 692.471 61.7C692.471 68.1 693.804 73.3 696.471 77.3C699.204 81.3 702.971 83.3 707.771 83.3C710.438 83.3 712.904 82.9667 715.171 82.3C717.438 81.6333 719.504 80.8 721.371 79.8L727.571 92C725.638 93.1333 723.371 94.1 720.771 94.9C718.171 95.6333 715.604 96.1667 713.071 96.5L712.071 99.1C714.404 99.9 716.138 101.3 717.271 103.3C718.404 105.3 718.971 107.167 718.971 108.9C718.971 112.633 717.571 115.467 714.771 117.4C711.971 119.333 708.838 120.3 705.371 120.3C703.638 120.3 701.738 119.967 699.671 119.3C697.671 118.633 695.938 117.733 694.471 116.6L697.971 108.4C698.704 108.733 699.638 109.1 700.771 109.5C701.971 109.9 703.004 110.1 703.871 110.1C704.738 110.1 705.471 109.967 706.071 109.7C706.738 109.433 707.071 108.967 707.071 108.3C707.071 107.367 706.304 106.533 704.771 105.8C703.304 105.067 701.204 104.567 698.471 104.3L701.571 96.4C692.771 95.2 686.204 91.4333 681.871 85.1C677.604 78.7 675.471 70.9333 675.471 61.8C675.471 51.3333 678.304 42.8 683.971 36.2C689.704 29.5333 697.604 26.2 707.671 26.2C710.538 26.2 713.771 26.6333 717.371 27.5C721.038 28.3667 724.238 29.6667 726.971 31.4L722.071 42.6C718.671 41.5333 716.038 40.8 714.171 40.4C712.304 39.9333 710.138 39.7 707.671 39.7ZM761.427 20.5H750.127C750.127 15.0333 751.394 11.2333 753.927 9.1C756.461 6.96666 759.227 5.9 762.227 5.9C764.361 5.9 766.227 6.46666 767.827 7.59999C769.427 8.73333 771.027 9.3 772.627 9.3C773.227 9.3 773.761 8.96666 774.227 8.3C774.694 7.63333 774.927 6.96666 774.927 6.3H785.727C785.727 11.8333 784.494 15.6667 782.027 17.8C779.627 19.9333 776.961 21 774.027 21C771.827 21 769.961 20.4333 768.427 19.3C766.894 18.1 765.361 17.5 763.827 17.5C763.227 17.5 762.661 17.8667 762.127 18.6C761.661 19.2667 761.427 19.9 761.427 20.5ZM768.127 26C778.994 26 787.127 29.4333 792.527 36.3C797.994 43.1 800.727 51.3667 800.727 61.1C800.727 71.6333 797.861 80.2333 792.127 86.9C786.394 93.5667 778.394 96.9 768.127 96.9C757.327 96.9 749.194 93.5 743.727 86.7C738.327 79.8333 735.627 71.5333 735.627 61.8C735.627 51.3333 738.527 42.7667 744.327 36.1C750.127 29.4333 758.061 26.0667 768.127 26ZM768.027 83.2C772.961 83.2 776.794 81.3667 779.527 77.7C782.327 74.0333 783.727 68.5 783.727 61.1C783.727 54.9 782.494 49.8 780.027 45.8C777.627 41.8 773.727 39.8 768.327 39.8C763.527 39.8 759.694 41.8 756.827 45.8C753.961 49.8 752.527 55.1 752.527 61.7C752.527 67.9 753.727 73.0333 756.127 77.1C758.594 81.1667 762.561 83.2 768.027 83.2ZM861.746 95.5H812.646V27.5H856.246L858.046 40.5H829.046V54.9H849.046L850.846 67.8H829.046V82.7H859.846C860.179 84.8333 860.479 86.9667 860.746 89.1C861.079 91.2333 861.413 93.3667 861.746 95.5ZM867.842 45.2C867.842 39.8 870.042 35.2667 874.442 31.6C878.842 27.9333 884.876 26.1 892.542 26.1C895.942 26.1 899.409 26.6 902.942 27.6C906.476 28.6 909.576 29.9 912.242 31.5L907.242 43.2C904.176 42.0667 901.609 41.2333 899.542 40.7C897.476 40.1 895.209 39.8 892.742 39.8C890.342 39.8 888.409 40.3 886.942 41.3C885.542 42.3 884.842 43.6333 884.842 45.3C884.842 47.1667 885.942 48.7333 888.142 50C890.342 51.2667 892.976 52.7 896.042 54.3C900.842 56.7667 905.442 59.8 909.842 63.4C914.242 67 916.442 71.6 916.442 77.2C916.442 82.8 914.109 87.4667 909.442 91.2C904.842 94.9333 898.376 96.8 890.042 96.8C886.776 96.8 882.909 96.2333 878.442 95.1C874.042 93.9667 870.709 92.6667 868.442 91.2L873.442 78.6C875.309 79.6667 877.809 80.7 880.942 81.7C884.142 82.6333 887.042 83.1 889.642 83.1C892.909 83.1 895.376 82.5 897.042 81.3C898.709 80.1 899.542 78.6667 899.542 77C899.542 75.4667 898.342 73.9667 895.942 72.5C893.609 70.9667 891.042 69.5 888.242 68.1C883.642 65.7 879.076 62.7667 874.542 59.3C870.076 55.7667 867.842 51.0667 867.842 45.2Z" fill="url(#paint0_linear_48_420)"/>
<mask id="mask0_48_420" style="mask-type:luminance" maskUnits="userSpaceOnUse" x="937" y="67" width="37" height="37">
<path d="M942.191 103.621L970.463 97.6269C971.984 97.3005 973.218 96.1905 973.708 94.7148C974.191 93.2391 973.852 91.6133 972.813 90.4511L953.813 69.1324C952.775 67.9702 951.201 67.4478 949.674 67.7612C948.152 68.0681 946.912 69.1716 946.415 70.6473L937.222 98.0448C936.732 99.5074 937.065 101.12 938.091 102.276C939.116 103.425 940.683 103.941 942.191 103.621Z" fill="white"/>
</mask>
<g mask="url(#mask0_48_420)">
<path d="M948.805 63.5171L977.821 96.0664L949.34 121.453L920.324 88.9036L948.805 63.5171Z" fill="url(#paint1_linear_48_420)"/>
</g>
<g filter="url(#filter0_d_48_420)">
<mask id="mask1_48_420" style="mask-type:luminance" maskUnits="userSpaceOnUse" x="942" y="6" width="96" height="96">
<path d="M942.267 6H1037.54V101.278H942.267V6Z" fill="white"/>
</mask>
<g mask="url(#mask1_48_420)">
<mask id="mask2_48_420" style="mask-type:luminance" maskUnits="userSpaceOnUse" x="935" y="-1" width="110" height="110">
<path d="M951.669 -0.37915L1044.41 15.3438L1028.68 108.088L935.947 92.3586L951.669 -0.37915Z" fill="white"/>
</mask>
<g mask="url(#mask2_48_420)">
<mask id="mask3_48_420" style="mask-type:luminance" maskUnits="userSpaceOnUse" x="943" y="6" width="95" height="95">
<path d="M998.041 7.48213C972.433 3.14005 948.151 20.3778 943.809 45.9928C939.467 71.6013 956.704 95.8843 982.312 100.226C1007.93 104.569 1032.21 87.3242 1036.55 61.7157C1040.89 36.1072 1023.65 11.8242 998.041 7.48213Z" fill="white"/>
</mask>
<g mask="url(#mask3_48_420)">
<path d="M951.669 -0.37912L1044.41 15.3438L1028.68 108.088L935.947 92.3586L951.669 -0.37912Z" fill="url(#paint2_linear_48_420)"/>
</g>
<mask id="mask4_48_420" style="mask-type:luminance" maskUnits="userSpaceOnUse" x="975" y="32" width="29" height="44">
<path d="M976 33.7065L1000.21 32L1003.13 73.4111L978.924 75.1176L976 33.7065Z" fill="white"/>
</mask>
<g mask="url(#mask4_48_420)">
<mask id="mask5_48_420" style="mask-type:luminance" maskUnits="userSpaceOnUse" x="975" y="32" width="29" height="44">
<path d="M976 33.7065L1000.21 32L1003.13 73.4111L978.924 75.1176L976 33.7065Z" fill="white"/>
</mask>
<g mask="url(#mask5_48_420)">
<path d="M995.552 32.3293L980.66 33.3805C978.092 33.5601 976.153 35.8155 976.339 38.4134L978.594 70.414C978.781 73.012 981.013 74.9712 983.581 74.7916L998.473 73.7405C1001.04 73.5575 1002.98 71.3022 1002.79 68.7042L1000.54 36.7069C1000.35 34.109 998.12 32.1464 995.552 32.3293ZM990.895 72.3833C989.349 72.493 988.015 71.3188 987.902 69.7554C987.792 68.1952 988.953 66.8447 990.496 66.7349C992.04 66.6252 993.377 67.7994 993.487 69.3628C993.596 70.9229 992.439 72.2735 990.895 72.3833ZM998.739 64.2634L981.987 65.4443L980.128 39.092L996.88 37.9078L998.739 64.2634Z" fill="white"/>
</g>
</g>
</g>
</g>
</g>
<defs>
<filter id="filter0_d_48_420" x="943.139" y="6.81277" width="142.081" height="142.083" filterUnits="userSpaceOnUse" color-interpolation-filters="sRGB">
<feFlood flood-opacity="0" result="BackgroundImageFix"/>
<feColorMatrix in="SourceAlpha" type="matrix" values="0 0 0 0 0 0 0 0 0 0 0 0 0 0 0 0 0 0 127 0" result="hardAlpha"/>
<feOffset dx="24" dy="24"/>
<feGaussianBlur stdDeviation="12"/>
<feColorMatrix type="matrix" values="0 0 0 0 0 0 0 0 0 0 0 0 0 0 0 0 0 0 0.06 0"/>
<feBlend mode="normal" in2="BackgroundImageFix" result="effect1_dropShadow_48_420"/>
<feBlend mode="normal" in="SourceGraphic" in2="effect1_dropShadow_48_420" result="shape"/>
</filter>
<linearGradient id="paint0_linear_48_420" x1="465.5" y1="1.5" x2="465.5" y2="107.5" gradientUnits="userSpaceOnUse">
<stop stop-color="#405970"/>
<stop offset="1" stop-color="#6D8EAC"/>
</linearGradient>
<linearGradient id="paint1_linear_48_420" x1="949.073" y1="63.5171" x2="949.073" y2="121.453" gradientUnits="userSpaceOnUse">
<stop stop-color="#48637B"/>
<stop offset="1" stop-color="#6A89A8"/>
</linearGradient>
<linearGradient id="paint2_linear_48_420" x1="990.179" y1="-0.37912" x2="990.179" y2="108.088" gradientUnits="userSpaceOnUse">
<stop stop-color="#48637C"/>
<stop offset="1" stop-color="#6988A7"/>
</linearGradient>
</defs>
</svg>
