<svg width="758" height="180" viewBox="0 0 758 180" fill="none" xmlns="http://www.w3.org/2000/svg">
<g filter="url(#filter0_d_48_459)">
<path d="M12.2301 131V63H38.3301C45.8634 63 52.3301 64.9333 57.7301 68.8C63.1968 72.6 65.9301 78.5333 65.9301 86.6C65.9301 94.5333 63.0301 100.4 57.2301 104.2C51.4301 108 44.8634 109.9 37.5301 109.9H28.6301V131H12.2301ZM37.8301 76.1H28.6301V96.8H38.0301C41.1634 96.8 43.7634 95.9333 45.8301 94.2C47.8968 92.4 48.9301 89.9667 48.9301 86.9C48.9301 83.4333 47.9301 80.7667 45.9301 78.9C43.9968 77.0333 41.2968 76.1 37.8301 76.1ZM106.479 61.5C117.345 61.5 125.479 64.9333 130.879 71.8C136.345 78.6 139.079 86.8667 139.079 96.6C139.079 107.133 136.212 115.733 130.479 122.4C124.745 129.067 116.745 132.4 106.479 132.4C95.6785 132.4 87.5452 129 82.0785 122.2C76.6785 115.333 73.9785 107.033 73.9785 97.3C73.9785 86.8333 76.8785 78.2667 82.6785 71.6C88.4785 64.9333 96.4119 61.5667 106.479 61.5ZM106.379 118.7C111.312 118.7 115.145 116.867 117.879 113.2C120.679 109.533 122.079 104 122.079 96.6C122.079 90.4 120.845 85.3 118.379 81.3C115.979 77.3 112.079 75.3 106.679 75.3C101.879 75.3 98.0452 77.3 95.1785 81.3C92.3119 85.3 90.8785 90.6 90.8785 97.2C90.8785 103.4 92.0785 108.533 94.4785 112.6C96.9452 116.667 100.912 118.7 106.379 118.7ZM176.597 76.2H167.397V95.1H176.797C179.997 95.1 182.597 94.3 184.597 92.7C186.664 91.0333 187.697 88.7 187.697 85.7C187.697 82.4333 186.697 80.0333 184.697 78.5C182.764 76.9667 180.064 76.2 176.597 76.2ZM191.697 131C189.631 127.2 187.597 123.4 185.597 119.6C183.597 115.733 181.597 111.9 179.597 108.1C179.064 108.167 178.497 108.2 177.897 108.2C177.364 108.2 176.831 108.2 176.297 108.2H167.397V131H150.997V63H177.097C184.631 63 191.131 64.8 196.597 68.4C202.064 71.9333 204.797 77.6333 204.797 85.5C204.797 89.6333 203.831 93.2333 201.897 96.3C200.031 99.3 197.664 101.667 194.797 103.4C197.397 108 199.964 112.633 202.497 117.3C205.097 121.9 207.697 126.467 210.297 131H191.697ZM212.171 63H269.271C269.604 65.2 269.904 67.3667 270.171 69.5C270.504 71.6333 270.837 73.8 271.171 76H248.871V131H232.471V76H212.171V63ZM306.315 83.4L299.015 103.7H313.915L306.315 83.4ZM314.515 63L340.215 129.2L324.015 131L318.715 116.7H294.415L289.215 131H272.915L298.715 63H314.515ZM396.056 131H348.656V63H365.056V118.1H394.256L396.056 131ZM489.676 131L474.476 87.1L459.776 131H443.876L420.376 64.8L436.476 63L451.976 110.1L466.676 63H482.676L498.076 110L512.876 63H529.276L505.676 131H489.676ZM586.621 131H537.521V63H581.121L582.921 76H553.921V90.4H573.921L575.721 103.3H553.921V118.2H584.721C585.054 120.333 585.354 122.467 585.621 124.6C585.954 126.733 586.287 128.867 586.621 131ZM645.717 82.8C645.65 85.2667 645.117 87.5 644.117 89.5C643.117 91.4333 641.783 93.1667 640.117 94.7C642.917 96.5 645.183 98.7667 646.917 101.5C648.717 104.167 649.617 107.3 649.617 110.9C649.617 118.167 646.917 123.333 641.517 126.4C636.183 129.467 629.85 131 622.517 131H596.017V63H619.617C626.95 63 633.117 64.5333 638.117 67.6C643.183 70.6667 645.717 75.7333 645.717 82.8ZM618.617 76.2H612.417V89.5H617.317C620.717 89.5 623.45 89.0333 625.517 88.1C627.583 87.1667 628.617 85.5 628.617 83.1C628.617 80.6333 627.717 78.8667 625.917 77.8C624.183 76.7333 621.75 76.2 618.617 76.2ZM622.617 102.5H612.417V118H622.417C625.483 118 627.95 117.4 629.817 116.2C631.683 114.933 632.617 113.067 632.617 110.6C632.617 108 631.717 106 629.917 104.6C628.117 103.2 625.683 102.5 622.617 102.5Z" fill="url(#paint0_linear_48_459)"/>
</g>
<mask id="mask0_48_459" style="mask-type:luminance" maskUnits="userSpaceOnUse" x="669" y="99" width="35" height="34">
<path d="M669.547 99.6848H703.815V132.464H669.547V99.6848Z" fill="white"/>
</mask>
<g mask="url(#mask0_48_459)">
<mask id="mask1_48_459" style="mask-type:luminance" maskUnits="userSpaceOnUse" x="660" y="98" width="46" height="46">
<path d="M682.642 98.0084L705.073 123.169L682.56 143.237L660.13 118.077L682.642 98.0084Z" fill="white"/>
</mask>
<g mask="url(#mask1_48_459)">
<mask id="mask2_48_459" style="mask-type:luminance" maskUnits="userSpaceOnUse" x="670" y="99" width="34" height="33">
<path d="M675.029 131.83L700.23 126.487C701.586 126.196 702.686 125.207 703.122 123.891C703.553 122.576 703.25 121.127 702.325 120.091L685.388 101.088C684.463 100.052 683.06 99.586 681.698 99.8653C680.342 100.139 679.237 101.123 678.794 102.438L670.6 126.86C670.163 128.163 670.46 129.601 671.374 130.631C672.287 131.655 673.684 132.115 675.029 131.83Z" fill="white"/>
</mask>
<g mask="url(#mask2_48_459)">
<path d="M680.924 96.0821L706.789 125.096L681.401 147.725L655.537 118.711L680.924 96.0821Z" fill="url(#paint1_linear_48_459)"/>
</g>
</g>
</g>
<mask id="mask3_48_459" style="mask-type:luminance" maskUnits="userSpaceOnUse" x="672" y="47" width="86" height="86">
<path d="M672.526 47.5356H757.453V132.464H672.526V47.5356Z" fill="white"/>
</mask>
<g mask="url(#mask3_48_459)">
<mask id="mask4_48_459" style="mask-type:luminance" maskUnits="userSpaceOnUse" x="666" y="41" width="98" height="98">
<path d="M680.908 41.8491L763.576 55.8642L749.556 138.535L666.893 124.514L680.908 41.8491Z" fill="white"/>
</mask>
<g mask="url(#mask4_48_459)">
<mask id="mask5_48_459" style="mask-type:luminance" maskUnits="userSpaceOnUse" x="673" y="48" width="85" height="85">
<path d="M722.242 48.8568C699.415 44.9863 677.77 60.3518 673.9 83.1845C670.03 106.011 685.395 127.657 708.221 131.527C731.054 135.398 752.698 120.027 756.569 97.1997C760.439 74.3727 745.068 52.7272 722.242 48.8568Z" fill="white"/>
</mask>
<g mask="url(#mask5_48_459)">
<path d="M680.907 41.8493L763.576 55.8645L749.555 138.535L666.893 124.514L680.907 41.8493Z" fill="url(#paint2_linear_48_459)"/>
</g>
<mask id="mask6_48_459" style="mask-type:luminance" maskUnits="userSpaceOnUse" x="680" y="62" width="65" height="57">
<path d="M680.693 72.3007L736.272 62.8983L744.069 108.989L688.49 118.392L680.693 72.3007Z" fill="white"/>
</mask>
<g mask="url(#mask6_48_459)">
<mask id="mask7_48_459" style="mask-type:luminance" maskUnits="userSpaceOnUse" x="687" y="70" width="55" height="40">
<path d="M687.134 70.5792L741.519 70.6005L741.503 109.598L687.119 109.576L687.134 70.5792Z" fill="white"/>
</mask>
<g mask="url(#mask7_48_459)">
<mask id="mask8_48_459" style="mask-type:luminance" maskUnits="userSpaceOnUse" x="687" y="70" width="55" height="40">
<path d="M687.134 70.5792L741.519 70.6005L741.503 109.598L687.119 109.576L687.134 70.5792Z" fill="white"/>
</mask>
<g mask="url(#mask8_48_459)">
<path d="M732.441 104.998C734.946 104.999 736.953 102.949 736.954 100.416L736.985 75.1917C736.986 72.6585 734.961 70.6045 732.456 70.6035L696.199 70.5875C693.693 70.5865 691.666 72.6398 691.664 75.173L691.655 100.394C691.653 102.927 693.678 104.981 696.184 104.982L687.12 104.979C687.118 107.512 689.143 109.567 691.649 109.567L736.975 109.585C739.475 109.587 741.508 107.533 741.505 105.001L732.441 104.998ZM696.196 75.1743L732.453 75.1903L732.444 100.411L696.187 100.395L696.196 75.1743ZM714.314 107.286C713.066 107.284 712.048 106.253 712.046 104.989C712.046 103.731 713.069 102.697 714.312 102.7C715.559 102.701 716.578 103.733 716.578 104.991C716.58 106.254 715.561 107.282 714.314 107.286Z" fill="white"/>
</g>
</g>
</g>
</g>
</g>
<defs>
<filter id="filter0_d_48_459" x="8.2301" y="61.5" width="645.387" height="78.9" filterUnits="userSpaceOnUse" color-interpolation-filters="sRGB">
<feFlood flood-opacity="0" result="BackgroundImageFix"/>
<feColorMatrix in="SourceAlpha" type="matrix" values="0 0 0 0 0 0 0 0 0 0 0 0 0 0 0 0 0 0 127 0" result="hardAlpha"/>
<feOffset dy="4"/>
<feGaussianBlur stdDeviation="2"/>
<feComposite in2="hardAlpha" operator="out"/>
<feColorMatrix type="matrix" values="0 0 0 0 0 0 0 0 0 0 0 0 0 0 0 0 0 0 0.05 0"/>
<feBlend mode="normal" in2="BackgroundImageFix" result="effect1_dropShadow_48_459"/>
<feBlend mode="normal" in="SourceGraphic" in2="effect1_dropShadow_48_459" result="shape"/>
</filter>
<linearGradient id="paint0_linear_48_459" x1="329.047" y1="36" x2="329.047" y2="144" gradientUnits="userSpaceOnUse">
<stop stop-color="#405970"/>
<stop offset="1" stop-color="#6D8EAC"/>
</linearGradient>
<linearGradient id="paint1_linear_48_459" x1="681.163" y1="96.0821" x2="681.163" y2="147.725" gradientUnits="userSpaceOnUse">
<stop stop-color="#405970"/>
<stop offset="1" stop-color="#7598B8"/>
</linearGradient>
<linearGradient id="paint2_linear_48_459" x1="715.234" y1="41.8493" x2="715.234" y2="138.535" gradientUnits="userSpaceOnUse">
<stop stop-color="#405970"/>
<stop offset="1" stop-color="#7598B8"/>
</linearGradient>
</defs>
</svg>
